<svg xmlns="http://www.w3.org/2000/svg" xmlns:xlink="http://www.w3.org/1999/xlink" width="500" zoomAndPan="magnify" viewBox="0 0 375 374.999991" height="500" preserveAspectRatio="xMidYMid meet" version="1.0"><defs><g/><clipPath id="b96f3568b2"><path d="M 98.488281 139 L 276 139 L 276 197.394531 L 98.488281 197.394531 Z M 98.488281 139 " clip-rule="nonzero"/></clipPath></defs><rect x="-37.5" width="450" fill="#ffffff" y="-37.499999" height="449.999989" fill-opacity="1"/><rect x="-37.5" width="450" fill="#ffffff" y="-37.499999" height="449.999989" fill-opacity="1"/><rect x="-37.5" width="450" fill="#022135" y="-37.499999" height="449.999989" fill-opacity="1"/><path fill="#ed751c" d="M 212.746094 154.050781 C 212.746094 154.050781 234.949219 158.273438 250.285156 163.480469 C 265.621094 168.691406 268.058594 171 268.058594 171 L 270.308594 167.898438 C 270.308594 167.898438 263.710938 161.738281 250.085938 158.464844 C 236.460938 155.191406 220.25 154.148438 220.25 154.148438 L 212.746094 154.050781 " fill-opacity="1" fill-rule="evenodd"/><path fill="#ed751c" d="M 206.238281 177.535156 C 206.238281 177.535156 215.847656 184.660156 225.054688 183.65625 C 234.269531 182.648438 230.265625 184.859375 230.265625 184.859375 L 220.953125 193.191406 L 205.636719 192.785156 L 206.238281 177.535156 " fill-opacity="1" fill-rule="evenodd"/><path fill="#ed751c" d="M 127.703125 169.453125 C 127.703125 169.453125 169.484375 164.105469 172.152344 167.144531 C 174.816406 170.183594 150.4375 172.261719 141.917969 179.1875 C 133.398438 186.117188 136.308594 193.238281 136.308594 193.238281 L 132.355469 192.6875 C 132.355469 192.6875 131.65625 179.789062 130.457031 176.230469 C 129.253906 172.664062 127.703125 169.453125 127.703125 169.453125 " fill-opacity="1" fill-rule="evenodd"/><path fill="#ed751c" d="M 115.550781 166.320312 C 115.550781 166.320312 117.28125 165.289062 119.601562 164.878906 C 122.742188 164.316406 127.203125 163.488281 132.820312 162.898438 C 139.574219 162.179688 147.835938 161.730469 155.285156 161.550781 C 173.492188 161.113281 176.683594 162.363281 176.683594 162.363281 C 176.683594 162.363281 138.269531 164.125 129.753906 166.132812 C 121.246094 168.136719 121.375 167.320312 121.375 167.320312 L 116.617188 167.320312 L 115.550781 166.320312 " fill-opacity="1" fill-rule="evenodd"/><g clip-path="url(#b96f3568b2)"><path fill="#ffffff" d="M 115.347656 160.445312 C 115.679688 160.355469 116.019531 160.273438 116.371094 160.203125 C 117.246094 159.394531 118.144531 158.609375 119.050781 157.851562 C 117.859375 157.914062 115.503906 158.023438 113.152344 158.109375 L 115.113281 160.058594 C 115.226562 160.171875 115.304688 160.304688 115.347656 160.445312 Z M 206.476562 161.875 C 206.476562 161.875 219.023438 164.875 226.78125 168.722656 C 234.535156 172.574219 238.613281 175.371094 238.242188 176.769531 C 237.867188 178.167969 221.410156 178.203125 217.566406 176.941406 C 213.722656 175.679688 209.203125 170.429688 207.46875 167.734375 C 205.730469 165.039062 205.253906 162.742188 205.632812 162.226562 C 206.003906 161.714844 206.476562 161.875 206.476562 161.875 Z M 114.871094 172.34375 C 116.308594 171.371094 119.34375 184.289062 118.84375 184.386719 C 113.648438 185.363281 110.179688 175.507812 114.871094 172.34375 Z M 178.015625 178.320312 C 178.621094 172.214844 181.933594 167.167969 186.519531 165.382812 C 186.941406 166.546875 187.308594 168.558594 187.648438 170.378906 C 188.40625 174.4375 188.941406 178.539062 188.941406 178.539062 C 188.941406 178.539062 188.839844 179.011719 188.613281 179.210938 C 188.429688 179.378906 180.78125 178.882812 178.015625 178.320312 Z M 183.789062 194.394531 C 180.660156 191.660156 178.425781 187.253906 177.992188 182.132812 C 177.953125 181.660156 177.929688 181.1875 177.921875 180.726562 C 180.792969 180.6875 188.367188 180.625 188.769531 181.023438 C 189.1875 181.4375 185.390625 191.421875 183.789062 194.394531 Z M 199.542969 193.261719 C 198.128906 194.921875 196.394531 196.15625 194.441406 196.816406 C 194.238281 196.859375 194.035156 196.902344 193.839844 196.9375 C 191.289062 197.375 189.0625 197.113281 187.289062 196.574219 C 186.820312 196.386719 186.363281 196.164062 185.917969 195.90625 C 186.328125 194.425781 189.859375 181.90625 190.554688 182.011719 C 191.222656 182.113281 198.152344 190.808594 199.542969 193.261719 Z M 189.320312 164.726562 C 194.660156 164.261719 199.585938 168.078125 201.976562 173.898438 C 199.777344 175.148438 190.679688 178.960938 190.679688 178.960938 C 190.679688 178.960938 190.238281 174.949219 189.78125 171.074219 C 189.484375 168.539062 189.171875 166.0625 189.15625 164.746094 C 189.210938 164.742188 189.265625 164.730469 189.320312 164.726562 Z M 191.667969 180.714844 C 191.667969 180.714844 199.933594 176.835938 202.878906 176.65625 C 203.140625 177.699219 203.320312 178.785156 203.414062 179.910156 C 203.769531 184.105469 202.855469 188.039062 201.066406 191.109375 C 198.191406 188.136719 191.667969 180.714844 191.667969 180.714844 Z M 164.589844 151.753906 C 164.523438 151.148438 164.734375 150.113281 165.179688 149.371094 C 165.535156 148.773438 166.035156 148.355469 166.660156 148.476562 C 166.898438 148.527344 171.695312 148.246094 173.953125 150.175781 C 176.203125 152.101562 175.90625 152.371094 177.046875 152.792969 C 177.578125 152.984375 178.082031 153.160156 178.472656 153.296875 C 171.875 144.125 168.730469 141.742188 157.488281 143.554688 C 155.195312 143.925781 152.957031 144.351562 150.773438 144.847656 C 150.128906 145.652344 149.578125 146.582031 149.089844 147.609375 C 151.855469 147.210938 165.355469 145.273438 165.800781 145.359375 C 166.300781 145.453125 163.644531 147.242188 163.425781 150.566406 C 163.273438 152.839844 164.105469 154.457031 164.644531 155.25 C 165.753906 155.140625 167.652344 154.976562 170.160156 154.851562 C 167.242188 154.589844 164.820312 153.882812 164.589844 151.753906 Z M 133.378906 191.175781 L 175.371094 191.070312 C 173.871094 187.546875 173.039062 183.746094 172.957031 180.070312 C 172.871094 176.554688 173.46875 173.144531 174.816406 170.183594 C 179.851562 159.160156 195.304688 157.203125 202.570312 167.371094 C 207.113281 173.726562 208.808594 181.945312 207.359375 189.476562 L 219.648438 189.476562 C 219.648438 189.476562 227.785156 182.925781 230.664062 181.917969 C 233.539062 180.917969 236.230469 181.171875 236.230469 181.171875 L 272.523438 181.171875 C 272.523438 181.171875 274.738281 181.199219 275.492188 182.457031 C 276.242188 183.707031 275.464844 183.644531 275.464844 183.644531 C 275.464844 183.644531 233.792969 184.304688 232.511719 184.808594 C 231.226562 185.308594 230.226562 186.53125 230.226562 186.53125 C 230.226562 186.53125 275.714844 185.839844 275.933594 186.15625 C 276.035156 186.304688 275.175781 187.601562 273.839844 189.105469 C 260.753906 188.925781 225.683594 188.882812 228.070312 189.605469 C 230.242188 190.273438 257.511719 191.582031 270.640625 192.179688 C 269.972656 192.710938 269.285156 193.175781 268.613281 193.527344 C 264.984375 195.410156 258.847656 194.777344 258.847656 194.777344 L 201.351562 194.777344 L 201.765625 194.257812 C 201.664062 194.222656 201.621094 194.164062 201.671875 194.074219 C 205.101562 187.921875 205.453125 179.554688 202.546875 172.542969 C 200.675781 168.007812 196.589844 164.179688 192.125 162.980469 C 189.171875 162.195312 185.804688 162.550781 182.21875 164.609375 C 179.617188 166.097656 177.742188 168.324219 176.535156 170.972656 C 175.304688 173.660156 174.761719 176.785156 174.835938 180.027344 C 174.941406 184.492188 176.226562 189.167969 178.539062 193.21875 L 179.890625 195.566406 L 129.773438 195.0625 C 130.410156 195.074219 131.023438 191.882812 131.0625 189.652344 C 128.820312 189.347656 121.222656 188.117188 120.890625 187.839844 C 120.515625 187.527344 120.984375 187.121094 120.984375 187.121094 C 120.984375 187.121094 128.332031 181.53125 130.550781 180.527344 C 130.378906 179.324219 130.15625 178.152344 129.878906 177.039062 C 128.574219 178.722656 121.023438 186.140625 120.5 185.957031 C 119.921875 185.75 120.261719 184.691406 120.261719 184.691406 C 120.261719 184.691406 120.667969 171.691406 121.078125 171.074219 C 121.484375 170.464844 125.804688 171.09375 127.867188 173.289062 C 128.476562 173.945312 128.929688 174.464844 129.25 174.886719 C 129.097656 174.4375 128.933594 173.996094 128.753906 173.574219 C 125.980469 167.007812 118.945312 165.472656 114.363281 170.933594 C 110.675781 175.328125 111.425781 182.796875 112.800781 187.972656 C 113.890625 192.105469 115.613281 194.8125 115.503906 194.84375 C 115.320312 194.90625 101.394531 194.027344 99.957031 193.152344 C 98.519531 192.273438 98.488281 190.421875 98.488281 190.421875 L 110.925781 190.257812 C 110.398438 188.773438 110.019531 187.101562 109.757812 185.449219 C 109.730469 185.277344 109.707031 185.105469 109.683594 184.929688 C 107.789062 177.496094 105.464844 166.902344 109.707031 163.121094 C 110.921875 162.273438 112.144531 161.597656 113.457031 161.070312 L 110.546875 158.179688 C 108.839844 158.210938 107.410156 158.210938 106.832031 158.121094 C 104.925781 157.84375 100.824219 154.109375 101.011719 153.609375 C 101.179688 153.15625 122.984375 151.957031 127.570312 151.707031 C 136.46875 146.195312 146.492188 142.542969 157.394531 140.441406 C 169.011719 138.203125 175.390625 144.625 181.625 154.664062 L 181.875 154.71875 C 183.757812 154.753906 184.675781 154.808594 186.734375 154.929688 C 186.078125 154.078125 183.234375 150.4375 179.183594 146.433594 C 174.554688 141.855469 170.425781 139.347656 170.425781 139.347656 C 183.808594 140.90625 198.097656 140.914062 210.878906 144.828125 C 219.550781 147.480469 224.359375 152.070312 231.097656 154.8125 L 231.082031 154.8125 C 250.113281 155.839844 274.398438 160.226562 274.148438 176.609375 C 274.171875 176.902344 274.011719 177.171875 273.761719 177.300781 C 273.609375 177.566406 273.378906 177.847656 273.0625 177.914062 C 272.421875 178.046875 258.34375 177.648438 250.1875 177.472656 C 242.039062 177.292969 242.039062 176.316406 242.425781 175.160156 C 242.703125 174.351562 256.871094 174.675781 265.375 174.941406 C 266.609375 172.949219 268.578125 170.242188 269.425781 169.1875 C 258.351562 156.433594 222.980469 155.488281 209.671875 154.75 C 200.929688 154.761719 192.371094 154.96875 188.722656 155.066406 C 193.75 155.449219 199.164062 156.136719 204.59375 157.3125 C 225.242188 161.761719 236.128906 169.101562 236.128906 169.101562 C 236.128906 169.101562 206.035156 157.808594 186.074219 156.871094 C 166.117188 155.925781 145.429688 157.953125 145.429688 157.953125 C 142.636719 159.507812 141.367188 160.8125 140.546875 162.179688 C 139.460938 170.226562 139.660156 178.558594 141.542969 187.25 C 141.710938 188.03125 141.304688 187.792969 141.148438 187.316406 C 138.210938 178.4375 138.007812 170.304688 138.777344 161.667969 C 139.597656 160.226562 142.117188 158.277344 145.148438 156.878906 C 146.136719 151.566406 147.289062 147.699219 148.613281 145.359375 C 137.058594 148.222656 127.101562 152.90625 119.058594 159.761719 L 118.042969 160.464844 C 119.761719 159.796875 122.859375 158.691406 128.445312 156.90625 C 140.28125 153.132812 145.957031 148.492188 145.753906 148.375 C 145.546875 148.25 143.980469 155.105469 143.929688 155.9375 C 143.882812 156.769531 140.519531 157.976562 140.519531 157.976562 C 140.519531 157.976562 120.5625 160.046875 114.675781 163.308594 C 112.144531 164.714844 111.164062 167.140625 110.582031 169.234375 C 109.984375 171.386719 109.917969 173.265625 109.917969 174.011719 C 112.835938 163.546875 125.25 160.757812 130.921875 172.660156 C 133.207031 178.078125 133.601562 185.25 133.378906 191.175781 " fill-opacity="1" fill-rule="evenodd"/></g><path fill="#ed751c" d="M 273.355469 168.285156 C 273.199219 168.351562 272.484375 167.863281 271.492188 168.902344 C 269.714844 170.789062 267.296875 174.683594 267.460938 174.808594 C 267.710938 175 273.511719 168.976562 273.511719 168.976562 Z M 209.003906 164.417969 C 209.003906 164.417969 224.410156 169.222656 228.660156 171.746094 C 232.90625 174.265625 233.792969 175.324219 233.792969 175.324219 C 233.792969 175.324219 217.671875 168.578125 214.375 167.351562 C 211.074219 166.121094 209.003906 164.417969 209.003906 164.417969 " fill-opacity="1" fill-rule="evenodd"/><g fill="#ed751c" fill-opacity="1"><g transform="translate(75.148486, 231.241713)"><g><path d="M 11.703125 0.359375 C 8.335938 0.359375 5.707031 -0.40625 3.8125 -1.9375 C 1.914062 -3.476562 0.96875 -5.664062 0.96875 -8.5 C 0.96875 -9.40625 1.078125 -10.398438 1.296875 -11.484375 C 2.140625 -15.492188 3.800781 -18.503906 6.28125 -20.515625 C 8.769531 -22.535156 12.269531 -23.546875 16.78125 -23.546875 C 18.144531 -23.546875 19.359375 -23.441406 20.421875 -23.234375 C 21.492188 -23.035156 22.546875 -22.726562 23.578125 -22.3125 L 22.3125 -16.421875 C 20.46875 -17.328125 18.367188 -17.78125 16.015625 -17.78125 C 13.804688 -17.78125 12.066406 -17.273438 10.796875 -16.265625 C 9.523438 -15.265625 8.660156 -13.671875 8.203125 -11.484375 C 8.015625 -10.566406 7.921875 -9.8125 7.921875 -9.21875 C 7.921875 -7.875 8.351562 -6.898438 9.21875 -6.296875 C 10.082031 -5.703125 11.484375 -5.40625 13.421875 -5.40625 C 15.828125 -5.40625 18.132812 -5.847656 20.34375 -6.734375 L 19.078125 -0.796875 C 16.703125 -0.0234375 14.242188 0.359375 11.703125 0.359375 Z M 11.703125 0.359375 "/></g></g></g><g fill="#ed751c" fill-opacity="1"><g transform="translate(97.000532, 231.241713)"><g><path d="M 10.625 0.359375 C 7.519531 0.359375 5.125 -0.3125 3.4375 -1.65625 C 1.75 -3 0.90625 -5.0625 0.90625 -7.84375 C 0.90625 -8.925781 1.046875 -10.148438 1.328125 -11.515625 C 2.242188 -15.765625 3.851562 -18.832031 6.15625 -20.71875 C 8.457031 -22.601562 11.648438 -23.546875 15.734375 -23.546875 C 18.878906 -23.546875 21.285156 -22.863281 22.953125 -21.5 C 24.617188 -20.144531 25.453125 -18.078125 25.453125 -15.296875 C 25.453125 -14.191406 25.304688 -12.929688 25.015625 -11.515625 C 24.128906 -7.367188 22.519531 -4.351562 20.1875 -2.46875 C 17.863281 -0.582031 14.675781 0.359375 10.625 0.359375 Z M 11.84375 -5.40625 C 13.570312 -5.40625 14.925781 -5.890625 15.90625 -6.859375 C 16.894531 -7.828125 17.628906 -9.378906 18.109375 -11.515625 C 18.347656 -12.617188 18.46875 -13.59375 18.46875 -14.4375 C 18.46875 -15.632812 18.160156 -16.488281 17.546875 -17 C 16.929688 -17.519531 15.921875 -17.78125 14.515625 -17.78125 C 12.753906 -17.78125 11.394531 -17.304688 10.4375 -16.359375 C 9.476562 -15.410156 8.75 -13.796875 8.25 -11.515625 C 7.976562 -10.316406 7.84375 -9.347656 7.84375 -8.609375 C 7.84375 -7.453125 8.15625 -6.628906 8.78125 -6.140625 C 9.40625 -5.648438 10.425781 -5.40625 11.84375 -5.40625 Z M 11.84375 -5.40625 "/></g></g></g><g fill="#ed751c" fill-opacity="1"><g transform="translate(122.488583, 231.241713)"><g><path d="M 4.5 -23.1875 L 16.5625 -23.1875 C 18.71875 -23.1875 20.382812 -22.632812 21.5625 -21.53125 C 22.738281 -20.425781 23.328125 -18.9375 23.328125 -17.0625 C 23.328125 -16.414062 23.253906 -15.707031 23.109375 -14.9375 C 22.773438 -13.40625 22.097656 -12.046875 21.078125 -10.859375 C 20.054688 -9.671875 18.816406 -8.75 17.359375 -8.09375 C 17.566406 -7.90625 17.726562 -7.664062 17.84375 -7.375 C 17.96875 -7.09375 18.101562 -6.660156 18.25 -6.078125 L 19.65625 0 L 12.59375 0 L 11.296875 -5.578125 C 11.179688 -6.015625 11.007812 -6.320312 10.78125 -6.5 C 10.550781 -6.675781 10.1875 -6.765625 9.6875 -6.765625 L 7.78125 -6.765625 L 6.375 0 L -0.390625 0 Z M 12.453125 -11.953125 C 13.441406 -11.953125 14.257812 -12.207031 14.90625 -12.71875 C 15.550781 -13.238281 15.984375 -13.976562 16.203125 -14.9375 C 16.296875 -15.507812 16.34375 -15.894531 16.34375 -16.09375 C 16.34375 -16.71875 16.15625 -17.191406 15.78125 -17.515625 C 15.414062 -17.835938 14.8125 -18 13.96875 -18 L 10.1875 -18 L 8.890625 -11.953125 Z M 12.453125 -11.953125 "/></g></g></g><g fill="#ed751c" fill-opacity="1"><g transform="translate(145.348624, 231.241713)"><g><path d="M 4.5 -23.1875 L 10.875 -23.1875 L 14.140625 -11.40625 L 22.359375 -23.1875 L 29.125 -23.1875 L 24.234375 0 L 17.453125 0 L 19.90625 -11.59375 L 14.578125 -3.953125 L 10.9375 -3.953125 L 8.8125 -11.59375 L 6.375 0 L -0.390625 0 Z M 4.5 -23.1875 "/></g></g></g><g fill="#ed751c" fill-opacity="1"><g transform="translate(173.212674, 231.241713)"><g><path d="M 10.625 0.359375 C 7.519531 0.359375 5.125 -0.3125 3.4375 -1.65625 C 1.75 -3 0.90625 -5.0625 0.90625 -7.84375 C 0.90625 -8.925781 1.046875 -10.148438 1.328125 -11.515625 C 2.242188 -15.765625 3.851562 -18.832031 6.15625 -20.71875 C 8.457031 -22.601562 11.648438 -23.546875 15.734375 -23.546875 C 18.878906 -23.546875 21.285156 -22.863281 22.953125 -21.5 C 24.617188 -20.144531 25.453125 -18.078125 25.453125 -15.296875 C 25.453125 -14.191406 25.304688 -12.929688 25.015625 -11.515625 C 24.128906 -7.367188 22.519531 -4.351562 20.1875 -2.46875 C 17.863281 -0.582031 14.675781 0.359375 10.625 0.359375 Z M 11.84375 -5.40625 C 13.570312 -5.40625 14.925781 -5.890625 15.90625 -6.859375 C 16.894531 -7.828125 17.628906 -9.378906 18.109375 -11.515625 C 18.347656 -12.617188 18.46875 -13.59375 18.46875 -14.4375 C 18.46875 -15.632812 18.160156 -16.488281 17.546875 -17 C 16.929688 -17.519531 15.921875 -17.78125 14.515625 -17.78125 C 12.753906 -17.78125 11.394531 -17.304688 10.4375 -16.359375 C 9.476562 -15.410156 8.75 -13.796875 8.25 -11.515625 C 7.976562 -10.316406 7.84375 -9.347656 7.84375 -8.609375 C 7.84375 -7.453125 8.15625 -6.628906 8.78125 -6.140625 C 9.40625 -5.648438 10.425781 -5.40625 11.84375 -5.40625 Z M 11.84375 -5.40625 "/></g></g></g><g fill="#ed751c" fill-opacity="1"><g transform="translate(198.700725, 231.241713)"><g/></g></g><g fill="#ed751c" fill-opacity="1"><g transform="translate(210.940752, 231.241713)"><g><path d="M 4.5 -23.1875 L 16.5625 -23.1875 C 18.71875 -23.1875 20.382812 -22.632812 21.5625 -21.53125 C 22.738281 -20.425781 23.328125 -18.9375 23.328125 -17.0625 C 23.328125 -16.414062 23.253906 -15.707031 23.109375 -14.9375 C 22.773438 -13.40625 22.097656 -12.046875 21.078125 -10.859375 C 20.054688 -9.671875 18.816406 -8.75 17.359375 -8.09375 C 17.566406 -7.90625 17.726562 -7.664062 17.84375 -7.375 C 17.96875 -7.09375 18.101562 -6.660156 18.25 -6.078125 L 19.65625 0 L 12.59375 0 L 11.296875 -5.578125 C 11.179688 -6.015625 11.007812 -6.320312 10.78125 -6.5 C 10.550781 -6.675781 10.1875 -6.765625 9.6875 -6.765625 L 7.78125 -6.765625 L 6.375 0 L -0.390625 0 Z M 12.453125 -11.953125 C 13.441406 -11.953125 14.257812 -12.207031 14.90625 -12.71875 C 15.550781 -13.238281 15.984375 -13.976562 16.203125 -14.9375 C 16.296875 -15.507812 16.34375 -15.894531 16.34375 -16.09375 C 16.34375 -16.71875 16.15625 -17.191406 15.78125 -17.515625 C 15.414062 -17.835938 14.8125 -18 13.96875 -18 L 10.1875 -18 L 8.890625 -11.953125 Z M 12.453125 -11.953125 "/></g></g></g><g fill="#ed751c" fill-opacity="1"><g transform="translate(233.800794, 231.241713)"><g><path d="M 4.5 -23.1875 L 22.0625 -23.1875 L 20.984375 -18 L 10.1875 -18 L 9.359375 -14.21875 L 18.828125 -14.21875 L 17.71875 -8.96875 L 8.25 -8.96875 L 7.453125 -5.1875 L 18.25 -5.1875 L 17.171875 0 L -0.390625 0 Z M 4.5 -23.1875 "/></g></g></g><g fill="#ed751c" fill-opacity="1"><g transform="translate(253.888836, 231.241713)"><g><path d="M 4.5 -23.1875 L 10.265625 -23.1875 L 16.421875 -10.90625 L 19.015625 -23.1875 L 25.78125 -23.1875 L 20.875 0 L 15.078125 0 L 8.96875 -12.234375 L 6.375 0 L -0.390625 0 Z M 4.5 -23.1875 "/></g></g></g><g fill="#ed751c" fill-opacity="1"><g transform="translate(278.404883, 231.241713)"><g><path d="M 8.53125 -18.140625 L 2.015625 -18.140625 L 3.0625 -23.1875 L 22.859375 -23.1875 L 21.8125 -18.140625 L 15.296875 -18.140625 L 11.453125 0 L 4.6875 0 Z M 8.53125 -18.140625 "/></g></g></g><g fill="#ffffff" fill-opacity="1"><g transform="translate(119.247342, 250.377509)"><g><path d="M 2.1875 -1.5 L 5.390625 -1.5 L 5.390625 0 L 0.515625 0 L 0.515625 -7.796875 L 2.1875 -7.796875 Z M 2.1875 -1.5 "/></g></g></g><g fill="#ffffff" fill-opacity="1"><g transform="translate(125.18346, 250.377509)"><g><path d="M 4.203125 -7.90625 C 4.734375 -7.90625 5.234375 -7.796875 5.703125 -7.578125 C 6.171875 -7.367188 6.578125 -7.082031 6.921875 -6.71875 C 7.273438 -6.351562 7.550781 -5.925781 7.75 -5.4375 C 7.945312 -4.957031 8.046875 -4.441406 8.046875 -3.890625 C 8.046875 -3.347656 7.945312 -2.832031 7.75 -2.34375 C 7.550781 -1.851562 7.273438 -1.421875 6.921875 -1.046875 C 6.578125 -0.679688 6.171875 -0.390625 5.703125 -0.171875 C 5.234375 0.0351562 4.734375 0.140625 4.203125 0.140625 C 3.671875 0.140625 3.171875 0.0351562 2.703125 -0.171875 C 2.234375 -0.390625 1.828125 -0.679688 1.484375 -1.046875 C 1.140625 -1.421875 0.863281 -1.851562 0.65625 -2.34375 C 0.457031 -2.832031 0.359375 -3.347656 0.359375 -3.890625 C 0.359375 -4.441406 0.457031 -4.957031 0.65625 -5.4375 C 0.863281 -5.925781 1.140625 -6.351562 1.484375 -6.71875 C 1.828125 -7.082031 2.234375 -7.367188 2.703125 -7.578125 C 3.171875 -7.796875 3.671875 -7.90625 4.203125 -7.90625 Z M 4.203125 -1.515625 C 4.503906 -1.515625 4.785156 -1.578125 5.046875 -1.703125 C 5.304688 -1.828125 5.535156 -2 5.734375 -2.21875 C 5.929688 -2.4375 6.085938 -2.6875 6.203125 -2.96875 C 6.316406 -3.257812 6.375 -3.566406 6.375 -3.890625 C 6.375 -4.222656 6.316406 -4.535156 6.203125 -4.828125 C 6.085938 -5.117188 5.929688 -5.367188 5.734375 -5.578125 C 5.535156 -5.796875 5.304688 -5.96875 5.046875 -6.09375 C 4.785156 -6.21875 4.503906 -6.28125 4.203125 -6.28125 C 3.898438 -6.28125 3.613281 -6.21875 3.34375 -6.09375 C 3.082031 -5.96875 2.851562 -5.796875 2.65625 -5.578125 C 2.457031 -5.367188 2.300781 -5.117188 2.1875 -4.828125 C 2.082031 -4.535156 2.03125 -4.222656 2.03125 -3.890625 C 2.03125 -3.566406 2.082031 -3.257812 2.1875 -2.96875 C 2.300781 -2.6875 2.457031 -2.4375 2.65625 -2.21875 C 2.851562 -2 3.082031 -1.828125 3.34375 -1.703125 C 3.613281 -1.578125 3.898438 -1.515625 4.203125 -1.515625 Z M 4.203125 -1.515625 "/></g></g></g><g fill="#ffffff" fill-opacity="1"><g transform="translate(134.03251, 250.377509)"><g><path d="M 4.921875 -7.796875 L 6.59375 -7.796875 L 6.59375 -2.8125 C 6.59375 -2.425781 6.507812 -2.050781 6.34375 -1.6875 C 6.1875 -1.332031 5.96875 -1.019531 5.6875 -0.75 C 5.40625 -0.476562 5.078125 -0.257812 4.703125 -0.09375 C 4.335938 0.0625 3.941406 0.140625 3.515625 0.140625 C 3.097656 0.140625 2.703125 0.0625 2.328125 -0.09375 C 1.953125 -0.257812 1.628906 -0.476562 1.359375 -0.75 C 1.085938 -1.019531 0.867188 -1.332031 0.703125 -1.6875 C 0.546875 -2.050781 0.46875 -2.425781 0.46875 -2.8125 L 0.46875 -7.796875 L 2.125 -7.796875 L 2.125 -3.140625 C 2.125 -2.921875 2.160156 -2.710938 2.234375 -2.515625 C 2.304688 -2.328125 2.40625 -2.15625 2.53125 -2 C 2.65625 -1.851562 2.800781 -1.734375 2.96875 -1.640625 C 3.144531 -1.554688 3.328125 -1.515625 3.515625 -1.515625 C 3.710938 -1.515625 3.894531 -1.554688 4.0625 -1.640625 C 4.238281 -1.734375 4.390625 -1.851562 4.515625 -2 C 4.640625 -2.15625 4.738281 -2.328125 4.8125 -2.515625 C 4.882812 -2.710938 4.921875 -2.921875 4.921875 -3.140625 Z M 4.921875 -7.796875 "/></g></g></g><g fill="#ffffff" fill-opacity="1"><g transform="translate(141.507537, 250.377509)"><g><path d="M 0.53125 -7.796875 L 5.40625 -7.796875 L 5.40625 -6.28125 L 2.203125 -6.28125 L 2.203125 -4.875 L 5.015625 -4.875 L 5.015625 -3.359375 L 2.203125 -3.359375 L 2.203125 -1.5 L 5.40625 -1.5 L 5.40625 0 L 0.53125 0 Z M 0.53125 -7.796875 "/></g></g></g><g fill="#ffffff" fill-opacity="1"><g transform="translate(147.87235, 250.377509)"><g><path d="M 6.125 -5.484375 C 6.125 -5.234375 6.085938 -4.992188 6.015625 -4.765625 C 5.953125 -4.546875 5.859375 -4.34375 5.734375 -4.15625 C 5.609375 -3.96875 5.457031 -3.800781 5.28125 -3.65625 C 5.101562 -3.507812 4.910156 -3.394531 4.703125 -3.3125 L 7.296875 0 L 5.34375 0 L 2.9375 -3.140625 L 2.1875 -3.140625 L 2.1875 0 L 0.515625 0 L 0.515625 -7.796875 L 3.890625 -7.796875 C 4.191406 -7.796875 4.476562 -7.734375 4.75 -7.609375 C 5.03125 -7.492188 5.269531 -7.332031 5.46875 -7.125 C 5.675781 -6.914062 5.835938 -6.671875 5.953125 -6.390625 C 6.066406 -6.109375 6.125 -5.804688 6.125 -5.484375 Z M 3.671875 -4.65625 C 3.890625 -4.65625 4.070312 -4.734375 4.21875 -4.890625 C 4.375 -5.054688 4.453125 -5.253906 4.453125 -5.484375 C 4.453125 -5.703125 4.375 -5.890625 4.21875 -6.046875 C 4.070312 -6.203125 3.890625 -6.28125 3.671875 -6.28125 L 2.1875 -6.28125 L 2.1875 -4.65625 Z M 3.671875 -4.65625 "/></g></g></g><g fill="#ffffff" fill-opacity="1"><g transform="translate(155.864011, 250.377509)"><g/></g></g><g fill="#ffffff" fill-opacity="1"><g transform="translate(159.326878, 250.377509)"><g><path d="M 6.8125 -7.796875 L 8.640625 -7.796875 L 5.34375 0 L 3.515625 0 L 0.234375 -7.796875 L 2.046875 -7.796875 L 4.4375 -1.96875 Z M 6.8125 -7.796875 "/></g></g></g><g fill="#ffffff" fill-opacity="1"><g transform="translate(168.626621, 250.377509)"><g><path d="M 4.203125 -7.90625 C 4.734375 -7.90625 5.234375 -7.796875 5.703125 -7.578125 C 6.171875 -7.367188 6.578125 -7.082031 6.921875 -6.71875 C 7.273438 -6.351562 7.550781 -5.925781 7.75 -5.4375 C 7.945312 -4.957031 8.046875 -4.441406 8.046875 -3.890625 C 8.046875 -3.347656 7.945312 -2.832031 7.75 -2.34375 C 7.550781 -1.851562 7.273438 -1.421875 6.921875 -1.046875 C 6.578125 -0.679688 6.171875 -0.390625 5.703125 -0.171875 C 5.234375 0.0351562 4.734375 0.140625 4.203125 0.140625 C 3.671875 0.140625 3.171875 0.0351562 2.703125 -0.171875 C 2.234375 -0.390625 1.828125 -0.679688 1.484375 -1.046875 C 1.140625 -1.421875 0.863281 -1.851562 0.65625 -2.34375 C 0.457031 -2.832031 0.359375 -3.347656 0.359375 -3.890625 C 0.359375 -4.441406 0.457031 -4.957031 0.65625 -5.4375 C 0.863281 -5.925781 1.140625 -6.351562 1.484375 -6.71875 C 1.828125 -7.082031 2.234375 -7.367188 2.703125 -7.578125 C 3.171875 -7.796875 3.671875 -7.90625 4.203125 -7.90625 Z M 4.203125 -1.515625 C 4.503906 -1.515625 4.785156 -1.578125 5.046875 -1.703125 C 5.304688 -1.828125 5.535156 -2 5.734375 -2.21875 C 5.929688 -2.4375 6.085938 -2.6875 6.203125 -2.96875 C 6.316406 -3.257812 6.375 -3.566406 6.375 -3.890625 C 6.375 -4.222656 6.316406 -4.535156 6.203125 -4.828125 C 6.085938 -5.117188 5.929688 -5.367188 5.734375 -5.578125 C 5.535156 -5.796875 5.304688 -5.96875 5.046875 -6.09375 C 4.785156 -6.21875 4.503906 -6.28125 4.203125 -6.28125 C 3.898438 -6.28125 3.613281 -6.21875 3.34375 -6.09375 C 3.082031 -5.96875 2.851562 -5.796875 2.65625 -5.578125 C 2.457031 -5.367188 2.300781 -5.117188 2.1875 -4.828125 C 2.082031 -4.535156 2.03125 -4.222656 2.03125 -3.890625 C 2.03125 -3.566406 2.082031 -3.257812 2.1875 -2.96875 C 2.300781 -2.6875 2.457031 -2.4375 2.65625 -2.21875 C 2.851562 -2 3.082031 -1.828125 3.34375 -1.703125 C 3.613281 -1.578125 3.898438 -1.515625 4.203125 -1.515625 Z M 4.203125 -1.515625 "/></g></g></g><g fill="#ffffff" fill-opacity="1"><g transform="translate(177.475673, 250.377509)"><g><path d="M 0.25 -7.796875 L 5.890625 -7.796875 L 5.890625 -6.28125 L 3.90625 -6.28125 L 3.90625 0 L 2.25 0 L 2.25 -6.28125 L 0.25 -6.28125 Z M 0.25 -7.796875 "/></g></g></g><g fill="#ffffff" fill-opacity="1"><g transform="translate(184.060328, 250.377509)"><g><path d="M 6.125 -5.484375 C 6.125 -5.234375 6.085938 -4.992188 6.015625 -4.765625 C 5.953125 -4.546875 5.859375 -4.34375 5.734375 -4.15625 C 5.609375 -3.96875 5.457031 -3.800781 5.28125 -3.65625 C 5.101562 -3.507812 4.910156 -3.394531 4.703125 -3.3125 L 7.296875 0 L 5.34375 0 L 2.9375 -3.140625 L 2.1875 -3.140625 L 2.1875 0 L 0.515625 0 L 0.515625 -7.796875 L 3.890625 -7.796875 C 4.191406 -7.796875 4.476562 -7.734375 4.75 -7.609375 C 5.03125 -7.492188 5.269531 -7.332031 5.46875 -7.125 C 5.675781 -6.914062 5.835938 -6.671875 5.953125 -6.390625 C 6.066406 -6.109375 6.125 -5.804688 6.125 -5.484375 Z M 3.671875 -4.65625 C 3.890625 -4.65625 4.070312 -4.734375 4.21875 -4.890625 C 4.375 -5.054688 4.453125 -5.253906 4.453125 -5.484375 C 4.453125 -5.703125 4.375 -5.890625 4.21875 -6.046875 C 4.070312 -6.203125 3.890625 -6.28125 3.671875 -6.28125 L 2.1875 -6.28125 L 2.1875 -4.65625 Z M 3.671875 -4.65625 "/></g></g></g><g fill="#ffffff" fill-opacity="1"><g transform="translate(192.051989, 250.377509)"><g><path d="M 0.53125 -7.796875 L 5.40625 -7.796875 L 5.40625 -6.28125 L 2.203125 -6.28125 L 2.203125 -4.875 L 5.015625 -4.875 L 5.015625 -3.359375 L 2.203125 -3.359375 L 2.203125 -1.5 L 5.40625 -1.5 L 5.40625 0 L 0.53125 0 Z M 0.53125 -7.796875 "/></g></g></g><g fill="#ffffff" fill-opacity="1"><g transform="translate(198.416803, 250.377509)"><g/></g></g><g fill="#ffffff" fill-opacity="1"><g transform="translate(201.879671, 250.377509)"><g><path d="M 6.8125 -7.796875 L 8.640625 -7.796875 L 5.34375 0 L 3.515625 0 L 0.234375 -7.796875 L 2.046875 -7.796875 L 4.4375 -1.96875 Z M 6.8125 -7.796875 "/></g></g></g><g fill="#ffffff" fill-opacity="1"><g transform="translate(211.179414, 250.377509)"><g><path d="M 4.203125 -7.90625 C 4.734375 -7.90625 5.234375 -7.796875 5.703125 -7.578125 C 6.171875 -7.367188 6.578125 -7.082031 6.921875 -6.71875 C 7.273438 -6.351562 7.550781 -5.925781 7.75 -5.4375 C 7.945312 -4.957031 8.046875 -4.441406 8.046875 -3.890625 C 8.046875 -3.347656 7.945312 -2.832031 7.75 -2.34375 C 7.550781 -1.851562 7.273438 -1.421875 6.921875 -1.046875 C 6.578125 -0.679688 6.171875 -0.390625 5.703125 -0.171875 C 5.234375 0.0351562 4.734375 0.140625 4.203125 0.140625 C 3.671875 0.140625 3.171875 0.0351562 2.703125 -0.171875 C 2.234375 -0.390625 1.828125 -0.679688 1.484375 -1.046875 C 1.140625 -1.421875 0.863281 -1.851562 0.65625 -2.34375 C 0.457031 -2.832031 0.359375 -3.347656 0.359375 -3.890625 C 0.359375 -4.441406 0.457031 -4.957031 0.65625 -5.4375 C 0.863281 -5.925781 1.140625 -6.351562 1.484375 -6.71875 C 1.828125 -7.082031 2.234375 -7.367188 2.703125 -7.578125 C 3.171875 -7.796875 3.671875 -7.90625 4.203125 -7.90625 Z M 4.203125 -1.515625 C 4.503906 -1.515625 4.785156 -1.578125 5.046875 -1.703125 C 5.304688 -1.828125 5.535156 -2 5.734375 -2.21875 C 5.929688 -2.4375 6.085938 -2.6875 6.203125 -2.96875 C 6.316406 -3.257812 6.375 -3.566406 6.375 -3.890625 C 6.375 -4.222656 6.316406 -4.535156 6.203125 -4.828125 C 6.085938 -5.117188 5.929688 -5.367188 5.734375 -5.578125 C 5.535156 -5.796875 5.304688 -5.96875 5.046875 -6.09375 C 4.785156 -6.21875 4.503906 -6.28125 4.203125 -6.28125 C 3.898438 -6.28125 3.613281 -6.21875 3.34375 -6.09375 C 3.082031 -5.96875 2.851562 -5.796875 2.65625 -5.578125 C 2.457031 -5.367188 2.300781 -5.117188 2.1875 -4.828125 C 2.082031 -4.535156 2.03125 -4.222656 2.03125 -3.890625 C 2.03125 -3.566406 2.082031 -3.257812 2.1875 -2.96875 C 2.300781 -2.6875 2.457031 -2.4375 2.65625 -2.21875 C 2.851562 -2 3.082031 -1.828125 3.34375 -1.703125 C 3.613281 -1.578125 3.898438 -1.515625 4.203125 -1.515625 Z M 4.203125 -1.515625 "/></g></g></g><g fill="#ffffff" fill-opacity="1"><g transform="translate(220.02846, 250.377509)"><g><path d="M 3.359375 -7.796875 L 3.359375 -6.390625 L 2.765625 -6.390625 L 2.765625 -1.390625 L 3.359375 -1.390625 L 3.359375 0 L 0.515625 0 L 0.515625 -1.390625 L 1.09375 -1.390625 L 1.09375 -6.390625 L 0.515625 -6.390625 L 0.515625 -7.796875 Z M 3.359375 -7.796875 "/></g></g></g><g fill="#ffffff" fill-opacity="1"><g transform="translate(224.326735, 250.377509)"><g><path d="M 0.25 -7.796875 L 5.890625 -7.796875 L 5.890625 -6.28125 L 3.90625 -6.28125 L 3.90625 0 L 2.25 0 L 2.25 -6.28125 L 0.25 -6.28125 Z M 0.25 -7.796875 "/></g></g></g><g fill="#ffffff" fill-opacity="1"><g transform="translate(230.91139, 250.377509)"><g><path d="M 4.921875 -7.796875 L 6.59375 -7.796875 L 6.59375 -2.8125 C 6.59375 -2.425781 6.507812 -2.050781 6.34375 -1.6875 C 6.1875 -1.332031 5.96875 -1.019531 5.6875 -0.75 C 5.40625 -0.476562 5.078125 -0.257812 4.703125 -0.09375 C 4.335938 0.0625 3.941406 0.140625 3.515625 0.140625 C 3.097656 0.140625 2.703125 0.0625 2.328125 -0.09375 C 1.953125 -0.257812 1.628906 -0.476562 1.359375 -0.75 C 1.085938 -1.019531 0.867188 -1.332031 0.703125 -1.6875 C 0.546875 -2.050781 0.46875 -2.425781 0.46875 -2.8125 L 0.46875 -7.796875 L 2.125 -7.796875 L 2.125 -3.140625 C 2.125 -2.921875 2.160156 -2.710938 2.234375 -2.515625 C 2.304688 -2.328125 2.40625 -2.15625 2.53125 -2 C 2.65625 -1.851562 2.800781 -1.734375 2.96875 -1.640625 C 3.144531 -1.554688 3.328125 -1.515625 3.515625 -1.515625 C 3.710938 -1.515625 3.894531 -1.554688 4.0625 -1.640625 C 4.238281 -1.734375 4.390625 -1.851562 4.515625 -2 C 4.640625 -2.15625 4.738281 -2.328125 4.8125 -2.515625 C 4.882812 -2.710938 4.921875 -2.921875 4.921875 -3.140625 Z M 4.921875 -7.796875 "/></g></g></g><g fill="#ffffff" fill-opacity="1"><g transform="translate(238.386418, 250.377509)"><g><path d="M 6.125 -5.484375 C 6.125 -5.234375 6.085938 -4.992188 6.015625 -4.765625 C 5.953125 -4.546875 5.859375 -4.34375 5.734375 -4.15625 C 5.609375 -3.96875 5.457031 -3.800781 5.28125 -3.65625 C 5.101562 -3.507812 4.910156 -3.394531 4.703125 -3.3125 L 7.296875 0 L 5.34375 0 L 2.9375 -3.140625 L 2.1875 -3.140625 L 2.1875 0 L 0.515625 0 L 0.515625 -7.796875 L 3.890625 -7.796875 C 4.191406 -7.796875 4.476562 -7.734375 4.75 -7.609375 C 5.03125 -7.492188 5.269531 -7.332031 5.46875 -7.125 C 5.675781 -6.914062 5.835938 -6.671875 5.953125 -6.390625 C 6.066406 -6.109375 6.125 -5.804688 6.125 -5.484375 Z M 3.671875 -4.65625 C 3.890625 -4.65625 4.070312 -4.734375 4.21875 -4.890625 C 4.375 -5.054688 4.453125 -5.253906 4.453125 -5.484375 C 4.453125 -5.703125 4.375 -5.890625 4.21875 -6.046875 C 4.070312 -6.203125 3.890625 -6.28125 3.671875 -6.28125 L 2.1875 -6.28125 L 2.1875 -4.65625 Z M 3.671875 -4.65625 "/></g></g></g><g fill="#ffffff" fill-opacity="1"><g transform="translate(246.378079, 250.377509)"><g><path d="M 0.53125 -7.796875 L 5.40625 -7.796875 L 5.40625 -6.28125 L 2.203125 -6.28125 L 2.203125 -4.875 L 5.015625 -4.875 L 5.015625 -3.359375 L 2.203125 -3.359375 L 2.203125 -1.5 L 5.40625 -1.5 L 5.40625 0 L 0.53125 0 Z M 0.53125 -7.796875 "/></g></g></g><g fill="#ffffff" fill-opacity="1"><g transform="translate(252.735615, 250.377509)"><g/></g></g></svg>